/* XPM */
static char * gmsh_32x32_xpm[] = {
"32 32 109 2",
"  	c None",
". 	c #999999",
"+ 	c #000000",
"@ 	c #D2D2D2",
"# 	c #B2B2B2",
"$ 	c #E3E3E3",
"% 	c #B9B9B9",
"& 	c #CECECE",
"* 	c #F0F0F0",
"= 	c #BABABA",
"- 	c #DEDEDE",
"; 	c #F1F1F1",
"> 	c #D4D4D4",
", 	c #EDEDED",
"' 	c #F2F2F2",
") 	c #E6E6E6",
"! 	c #D5D5D5",
"~ 	c #F3F3F3",
"{ 	c #E0E0E0",
"] 	c #F4F4F4",
"^ 	c #BBBBBB",
"/ 	c #D9D9D9",
"( 	c #EFEFEF",
"_ 	c #F5F5F5",
": 	c #BCBCBC",
"< 	c #EAEAEA",
"[ 	c #F6F6F6",
"} 	c #F7F7F7",
"| 	c #BDBDBD",
"1 	c #F8F8F8",
"2 	c #DADADA",
"3 	c #F9F9F9",
"4 	c #BEBEBE",
"5 	c #EBEBEB",
"6 	c #FAFAFA",
"7 	c #E2E2E2",
"8 	c #FBFBFB",
"9 	c #DCDCDC",
"0 	c #FCFCFC",
"a 	c #BFBFBF",
"b 	c #FDFDFD",
"c 	c #C0C0C0",
"d 	c #E8E8E8",
"e 	c #FEFEFE",
"f 	c #E1E1E1",
"g 	c #060606",
"h 	c #010101",
"i 	c #C3C3C3",
"j 	c #979797",
"k 	c #464646",
"l 	c #313131",
"m 	c #121212",
"n 	c #040404",
"o 	c #DBDBDB",
"p 	c #D7D7D7",
"q 	c #A1A1A1",
"r 	c #808080",
"s 	c #787878",
"t 	c #747474",
"u 	c #737373",
"v 	c #717171",
"w 	c #707070",
"x 	c #696969",
"y 	c #5D5D5D",
"z 	c #414141",
"A 	c #2C2C2C",
"B 	c #151515",
"C 	c #0D0D0D",
"D 	c #E9E9E9",
"E 	c #E7E7E7",
"F 	c #C2C2C2",
"G 	c #ADADAD",
"H 	c #949494",
"I 	c #848484",
"J 	c #767676",
"K 	c #727272",
"L 	c #6F6F6F",
"M 	c #6E6E6E",
"N 	c #6B6B6B",
"O 	c #686868",
"P 	c #676767",
"Q 	c #656565",
"R 	c #636363",
"S 	c #606060",
"T 	c #5B5B5B",
"U 	c #4D4D4D",
"V 	c #434343",
"W 	c #2F2F2F",
"X 	c #1C1C1C",
"Y 	c #080808",
"Z 	c #B7B7B7",
"` 	c #9C9C9C",
" .	c #565656",
"..	c #545454",
"+.	c #535353",
"@.	c #525252",
"#.	c #515151",
"$.	c #4F4F4F",
"%.	c #4C4C4C",
"&.	c #4A4A4A",
"*.	c #494949",
"=.	c #484848",
"-.	c #474747",
";.	c #454545",
">.	c #444444",
",.	c #424242",
"'.	c #404040",
").	c #393939",
"!.	c #050505",
"                                                                ",
"                                                                ",
"                                                                ",
"                              . +                               ",
"                            @ # +                               ",
"                            $ % + +                             ",
"                          & * = + +                             ",
"                          - ; = + + +                           ",
"                        > , ' = + + + +                         ",
"                        ) ; ' = + + + +                         ",
"                      ! ; ' ~ = + + + + +                       ",
"                      { ; ~ ] ^ + + + + +                       ",
"                    / ( ~ ] _ : + + + + + +                     ",
"                    < ' ~ ] [ : + + + + + +                     ",
"                  ! ; ~ ] [ } | + + + + + + +                   ",
"                  { ' ~ [ [ 1 | + + + + + + +                   ",
"                2 ; ] _ } 1 3 4 + + + + + + + +                 ",
"                5 ' ] [ } 1 3 4 + + + + + + + +                 ",
"              > ' ] [ } 1 3 6 4 + + + + + + + + +               ",
"              7 ] _ } } 3 3 8 4 + + + + + + + + +               ",
"            9 ' _ [ 1 1 6 6 0 a + + + + + + + + + +             ",
"            , ] [ } 1 3 6 8 0 a + + + + + + + + + +             ",
"          2 ] _ } 1 3 6 8 0 b c + + + + + + + + + + +           ",
"          d _ [ 1 1 6 6 0 0 e c + + + + + + + + + + +           ",
"        f ] } 1 3 6 6 8 0 b 0 : g h + + + + + + + + + +         ",
"        ; _ } 1 3 6 6 8 ] 7 i j k l m n + + + + + + + +         ",
"      o _ [ [ ' ) p : q r s t u v w x y z A B C n h + + +       ",
"      D ~ E F G H I J K L M N N O P Q R S T U V W X Y h + +     ",
"    Z ` L T  . ...+.@.#.$.U U %.&.*.=.-.;.>.>.,.z '.).A B !.    ",
"                                                                ",
"                                                                ",
"                                                                "};
